<svg width="24" height="24" viewBox="0 0 24 24" fill="none" xmlns="http://www.w3.org/2000/svg">
<g id="Control">
<rect x="0.25" y="0.25" width="23.5" height="23.5" rx="1.75" fill="white"/>
<rect x="0.25" y="0.25" width="23.5" height="23.5" rx="1.75" stroke="#F3F3F3" stroke-width="0.5"/>
<path id="Vector" d="M19.5 5.75V13.875C19.4996 14.2064 19.3678 14.5241 19.1335 14.7585C18.8991 14.9928 18.5814 15.1246 18.25 15.125H10.75V16.3755C10.75 16.4991 10.7133 16.62 10.6447 16.7228C10.576 16.8255 10.4784 16.9056 10.3642 16.953C10.25 17.0003 10.1243 17.0126 10.0031 16.9885C9.88185 16.9644 9.77048 16.9049 9.68307 16.8175L7.80807 14.9425C7.76604 14.9004 7.73026 14.8524 7.70181 14.8002C7.70132 14.7993 7.70074 14.7984 7.70026 14.7976C7.69216 14.7826 7.68499 14.7672 7.67819 14.7517C7.67671 14.7484 7.67497 14.7451 7.67356 14.7418C7.66772 14.7278 7.66278 14.7135 7.658 14.6993C7.65622 14.694 7.65413 14.6888 7.65249 14.6835C7.64835 14.6699 7.64512 14.6562 7.64192 14.6424C7.64046 14.6361 7.63862 14.63 7.63734 14.6236C7.63436 14.6088 7.63238 14.5938 7.63049 14.5788C7.62981 14.5733 7.6287 14.5681 7.62817 14.5626C7.62611 14.5418 7.625 14.521 7.62501 14.5002L7.625 14.5C7.625 14.498 7.62527 14.4962 7.62529 14.4942C7.62548 14.4758 7.62628 14.4574 7.62808 14.4391C7.62927 14.4267 7.63144 14.4147 7.63334 14.4026C7.63457 14.3948 7.63538 14.387 7.6369 14.3792C7.63969 14.365 7.64339 14.3512 7.64711 14.3374C7.64863 14.3318 7.64978 14.3261 7.65145 14.3205C7.65582 14.3059 7.66106 14.2918 7.66645 14.2777C7.66827 14.2729 7.66977 14.268 7.67171 14.2633C7.67776 14.2486 7.68464 14.2343 7.69176 14.2201C7.69373 14.2162 7.69542 14.2121 7.69748 14.2082C7.70595 14.1922 7.71522 14.1768 7.72499 14.1617C7.7262 14.1598 7.72721 14.1578 7.72845 14.156C7.75311 14.1187 7.78167 14.0842 7.81366 14.053L9.68307 12.1836C9.77048 12.0962 9.88185 12.0367 10.0031 12.0126C10.1243 11.9884 10.25 12.0008 10.3642 12.0481C10.4784 12.0954 10.576 12.1755 10.6447 12.2783C10.7133 12.3811 10.75 12.5019 10.75 12.6255V13.875H18.25V5.75H9.5V6.375C9.5 6.54076 9.43415 6.69973 9.31694 6.81694C9.19973 6.93415 9.04076 7 8.875 7C8.70924 7 8.55027 6.93415 8.43306 6.81694C8.31585 6.69973 8.25 6.54076 8.25 6.375V5.75C8.25038 5.4186 8.3822 5.10087 8.61654 4.86654C8.85087 4.6322 9.1686 4.50038 9.5 4.5H18.25C18.5814 4.50038 18.8991 4.6322 19.1335 4.86654C19.3678 5.10087 19.4996 5.4186 19.5 5.75ZM15.125 17.0005C14.9592 17.0005 14.8003 17.0664 14.6831 17.1836C14.5659 17.3008 14.5 17.4598 14.5 17.6255V18.2505H5.75V10.1255H13.25V11.375C13.25 11.4986 13.2867 11.6194 13.3553 11.7222C13.424 11.825 13.5216 11.9051 13.6358 11.9524C13.75 11.9997 13.8757 12.0121 13.9969 11.988C14.1182 11.9639 14.2295 11.9044 14.3169 11.817L16.1863 9.94756C16.2183 9.91636 16.2469 9.88183 16.2715 9.84456C16.2728 9.84269 16.2738 9.84073 16.275 9.83886C16.2848 9.82373 16.2941 9.80829 16.3025 9.79231C16.3046 9.78839 16.3063 9.78433 16.3083 9.78037C16.3154 9.76624 16.3222 9.752 16.3283 9.73727C16.3303 9.73245 16.3318 9.72749 16.3336 9.72262C16.339 9.70859 16.3442 9.69451 16.3485 9.68001C16.3502 9.67443 16.3514 9.66872 16.3529 9.6631C16.3566 9.64929 16.3603 9.63549 16.3631 9.62132C16.3646 9.61355 16.3654 9.6057 16.3667 9.5979C16.3686 9.5858 16.3707 9.5738 16.3719 9.56148C16.3737 9.54314 16.3745 9.52474 16.3747 9.50632C16.3747 9.50437 16.375 9.50249 16.375 9.50053L16.375 9.50037C16.375 9.47953 16.3739 9.45871 16.3718 9.43794C16.3713 9.43248 16.3702 9.4272 16.3695 9.42178C16.3676 9.40677 16.3656 9.39178 16.3627 9.3769C16.3614 9.37055 16.3595 9.36443 16.3581 9.35814C16.3549 9.34436 16.3517 9.33061 16.3475 9.31703C16.3459 9.31173 16.3438 9.30663 16.342 9.30139C16.3372 9.28704 16.3323 9.27277 16.3264 9.25874C16.325 9.25542 16.3233 9.25229 16.3219 9.249C16.3151 9.23345 16.3079 9.21804 16.2997 9.20298C16.2993 9.20209 16.2987 9.20125 16.2982 9.20038C16.2697 9.1481 16.234 9.10017 16.1919 9.05803L14.3169 7.18303C14.2295 7.09564 14.1181 7.03613 13.9969 7.01203C13.8757 6.98792 13.75 7.0003 13.6358 7.04761C13.5216 7.09492 13.424 7.17502 13.3553 7.27779C13.2867 7.38057 13.25 7.50139 13.25 7.625V8.87553H5.75C5.4186 8.87591 5.10087 9.00773 4.86654 9.24207C4.6322 9.47641 4.50038 9.79413 4.5 10.1255V18.2505C4.50038 18.5819 4.6322 18.8997 4.86654 19.134C5.10087 19.3683 5.4186 19.5002 5.75 19.5005H14.5C14.8314 19.5002 15.1491 19.3683 15.3835 19.134C15.6178 18.8997 15.7496 18.5819 15.75 18.2505V17.6255C15.75 17.4598 15.6841 17.3008 15.5669 17.1836C15.4497 17.0664 15.2908 17.0005 15.125 17.0005Z" fill="#D1D3D4"/>
</g>
</svg>
