<svg width="16" height="16" viewBox="0 0 16 16" fill="none" xmlns="http://www.w3.org/2000/svg">
<g id="Folders">
<path id="Vector" d="M12.5 7V12.5556C12.5 12.6734 12.4532 12.7865 12.3698 12.8698C12.2865 12.9532 12.1734 13 12.0556 13H2.5C2.36739 13 2.24021 12.9473 2.14645 12.8536C2.05268 12.7598 2 12.6326 2 12.5V5.5C2 5.36739 2.05268 5.24021 2.14645 5.14645C2.24021 5.05268 2.36739 5 2.5 5H5.33333C5.44152 5 5.54679 5.03509 5.63333 5.1L7.36667 6.4C7.45321 6.46491 7.55848 6.5 7.66667 6.5H12C12.1326 6.5 12.2598 6.55268 12.3536 6.64645C12.4473 6.74021 12.5 6.86739 12.5 7Z" stroke="#323232" stroke-linecap="round" stroke-linejoin="round"/>
<path id="Vector_2" d="M12.5 7V12.5556C12.5 12.6734 12.4532 12.7865 12.3698 12.8698C12.2865 12.9532 12.1734 13 12.0556 13H2.5C2.36739 13 2.24021 12.9473 2.14645 12.8536C2.05268 12.7598 2 12.6326 2 12.5V5.5C2 5.36739 2.05268 5.24021 2.14645 5.14645C2.24021 5.05268 2.36739 5 2.5 5H5.33333C5.44152 5 5.54679 5.03509 5.63333 5.1L7.36667 6.4C7.45321 6.46491 7.55848 6.5 7.66667 6.5H12C12.1326 6.5 12.2598 6.55268 12.3536 6.64645C12.4473 6.74021 12.5 6.86739 12.5 7Z" stroke="#323232" stroke-linecap="round" stroke-linejoin="round"/>
<path id="Vector_3" d="M4 5V3.5C4 3.36739 4.05268 3.24021 4.14645 3.14645C4.24021 3.05268 4.36739 3 4.5 3H7.33333C7.44152 3 7.54679 3.03509 7.63333 3.1L9.36667 4.4C9.45321 4.46491 9.55848 4.5 9.66667 4.5H14C14.1326 4.5 14.2598 4.55268 14.3536 4.64645C14.4473 4.74021 14.5 4.86739 14.5 5V10.5556C14.5 10.6139 14.4885 10.6717 14.4662 10.7256C14.4438 10.7796 14.4111 10.8286 14.3698 10.8698C14.3286 10.9111 14.2796 10.9438 14.2256 10.9662C14.1717 10.9885 14.1139 11 14.0556 11H12.5" stroke="#323232" stroke-linecap="round" stroke-linejoin="round"/>
</g>
</svg>
