<svg width="24" height="24" viewBox="0 0 24 24" fill="none" xmlns="http://www.w3.org/2000/svg">
<g id="List">
<g id="Vector">
<mask id="path-1-inside-1_3293_6432" fill="white">
<path d="M20.25 11.25H3.75C3.55109 11.25 3.36032 11.329 3.21967 11.4697C3.07902 11.6103 3 11.8011 3 12C3 12.1989 3.07902 12.3897 3.21967 12.5303C3.36032 12.671 3.55109 12.75 3.75 12.75H20.25C20.4489 12.75 20.6397 12.671 20.7803 12.5303C20.921 12.3897 21 12.1989 21 12C21 11.8011 20.921 11.6103 20.7803 11.4697C20.6397 11.329 20.4489 11.25 20.25 11.25Z"/>
</mask>
<path d="M20.25 11.25H3.75C3.55109 11.25 3.36032 11.329 3.21967 11.4697C3.07902 11.6103 3 11.8011 3 12C3 12.1989 3.07902 12.3897 3.21967 12.5303C3.36032 12.671 3.55109 12.75 3.75 12.75H20.25C20.4489 12.75 20.6397 12.671 20.7803 12.5303C20.921 12.3897 21 12.1989 21 12C21 11.8011 20.921 11.6103 20.7803 11.4697C20.6397 11.329 20.4489 11.25 20.25 11.25Z" fill="white"/>
<path d="M3 12H1.5H3ZM20.25 9.75H3.75V12.75H20.25V9.75ZM3.75 9.75C3.15326 9.75 2.58097 9.98705 2.15901 10.409L4.28033 12.5303C4.13968 12.671 3.94891 12.75 3.75 12.75V9.75ZM2.15901 10.409C1.73705 10.831 1.5 11.4033 1.5 12H4.5C4.5 12.1989 4.42098 12.3897 4.28033 12.5303L2.15901 10.409ZM1.5 12C1.5 12.5967 1.73705 13.169 2.15901 13.591L4.28033 11.4697C4.42098 11.6103 4.5 11.8011 4.5 12H1.5ZM2.15901 13.591C2.58097 14.013 3.15327 14.25 3.75 14.25V11.25C3.94891 11.25 4.13968 11.329 4.28033 11.4697L2.15901 13.591ZM3.75 14.25H20.25V11.25H3.75V14.25ZM20.25 14.25C20.8467 14.25 21.419 14.013 21.841 13.591L19.7197 11.4697C19.8603 11.329 20.0511 11.25 20.25 11.25V14.25ZM21.841 13.591C22.263 13.169 22.5 12.5967 22.5 12H19.5C19.5 11.8011 19.579 11.6103 19.7197 11.4697L21.841 13.591ZM22.5 12C22.5 11.4033 22.2629 10.831 21.841 10.409L19.7197 12.5303C19.579 12.3897 19.5 12.1989 19.5 12H22.5ZM21.841 10.409C21.419 9.98705 20.8467 9.75 20.25 9.75V12.75C20.0511 12.75 19.8603 12.671 19.7197 12.5303L21.841 10.409Z" fill="white" mask="url(#path-1-inside-1_3293_6432)"/>
</g>
<g id="Vector_2">
<mask id="path-3-inside-2_3293_6432" fill="white">
<path d="M3.75 6.75H20.25C20.4489 6.75 20.6397 6.67098 20.7803 6.53033C20.921 6.38968 21 6.19891 21 6C21 5.80109 20.921 5.61032 20.7803 5.46967C20.6397 5.32902 20.4489 5.25 20.25 5.25H3.75C3.55109 5.25 3.36032 5.32902 3.21967 5.46967C3.07902 5.61032 3 5.80109 3 6C3 6.19891 3.07902 6.38968 3.21967 6.53033C3.36032 6.67098 3.55109 6.75 3.75 6.75Z"/>
</mask>
<path d="M3 6H1.5H3ZM3.75 8.25H20.25V5.25H3.75V8.25ZM20.25 8.25C20.8467 8.25 21.419 8.01295 21.841 7.59099L19.7197 5.46967C19.8603 5.32901 20.0511 5.25 20.25 5.25V8.25ZM21.841 7.59099C22.263 7.16903 22.5 6.59673 22.5 6H19.5C19.5 5.80109 19.579 5.61033 19.7197 5.46967L21.841 7.59099ZM22.5 6C22.5 5.40326 22.2629 4.83097 21.841 4.40901L19.7197 6.53033C19.579 6.38968 19.5 6.19891 19.5 6H22.5ZM21.841 4.40901C21.419 3.98705 20.8467 3.75 20.25 3.75V6.75C20.0511 6.75 19.8603 6.67098 19.7197 6.53033L21.841 4.40901ZM20.25 3.75H3.75V6.75H20.25V3.75ZM3.75 3.75C3.15326 3.75 2.58097 3.98705 2.15901 4.40901L4.28033 6.53033C4.13968 6.67098 3.94891 6.75 3.75 6.75V3.75ZM2.15901 4.40901C1.73705 4.83097 1.5 5.40326 1.5 6H4.5C4.5 6.19891 4.42098 6.38968 4.28033 6.53033L2.15901 4.40901ZM1.5 6C1.5 6.59673 1.73705 7.16903 2.15901 7.59099L4.28033 5.46967C4.42098 5.61032 4.5 5.80109 4.5 6H1.5ZM2.15901 7.59099C2.58097 8.01295 3.15327 8.25 3.75 8.25V5.25C3.94891 5.25 4.13968 5.32902 4.28033 5.46967L2.15901 7.59099Z" fill="white" mask="url(#path-3-inside-2_3293_6432)"/>
</g>
<path id="Vector_3" d="M20.25 17.25H3.75C3.55109 17.25 3.36032 17.329 3.21967 17.4697C3.07902 17.6103 3 17.8011 3 18C3 18.1989 3.07902 18.3897 3.21967 18.5303C3.36032 18.671 3.55109 18.75 3.75 18.75H20.25C20.4489 18.75 20.6397 18.671 20.7803 18.5303C20.921 18.3897 21 18.1989 21 18C21 17.8011 20.921 17.6103 20.7803 17.4697C20.6397 17.329 20.4489 17.25 20.25 17.25Z" fill="white"/>
</g>
</svg>
