<svg width="24" height="24" viewBox="0 0 24 24" fill="none" xmlns="http://www.w3.org/2000/svg">
<g id="Warning">
<path id="Vector" d="M22.194 17.6218L13.9469 3.37182C13.749 3.03056 13.465 2.74727 13.1232 2.55034C12.7814 2.35341 12.3938 2.24976 11.9994 2.24976C11.6049 2.24976 11.2174 2.35341 10.8756 2.55034C10.5338 2.74727 10.2497 3.03056 10.0519 3.37182V3.37256L1.80479 17.6218C1.60679 17.9638 1.50234 18.3519 1.50195 18.747C1.50157 19.1422 1.60527 19.5304 1.80261 19.8728C1.99995 20.2151 2.28398 20.4995 2.62611 20.6972C2.96825 20.8949 3.35642 20.999 3.75157 20.999H20.2472C20.6423 20.999 21.0305 20.8949 21.3726 20.6972C21.7148 20.4995 21.9988 20.2151 22.1961 19.8728C22.3935 19.5304 22.4972 19.1422 22.4968 18.747C22.4964 18.3519 22.392 17.9638 22.194 17.6218ZM11.2486 9.74975C11.2486 9.55084 11.3277 9.36008 11.4683 9.21942C11.609 9.07877 11.7997 8.99975 11.9986 8.99975C12.1975 8.99975 12.3883 9.07877 12.529 9.21942C12.6696 9.36008 12.7486 9.55084 12.7486 9.74975V13.4998C12.7486 13.6987 12.6696 13.8894 12.529 14.0301C12.3883 14.1707 12.1975 14.2498 11.9986 14.2498C11.7997 14.2498 11.609 14.1707 11.4683 14.0301C11.3277 13.8894 11.2486 13.6987 11.2486 13.4998V9.74975ZM11.9992 18C11.7767 18 11.5592 17.934 11.3742 17.8104C11.1892 17.6868 11.045 17.5111 10.9598 17.3055C10.8747 17.1 10.8524 16.8738 10.8958 16.6555C10.9392 16.4373 11.0464 16.2369 11.2037 16.0795C11.361 15.9222 11.5615 15.815 11.7797 15.7716C11.9979 15.7282 12.2241 15.7505 12.4297 15.8357C12.6353 15.9208 12.811 16.065 12.9346 16.25C13.0582 16.435 13.1242 16.6525 13.1242 16.875C13.1242 17.1734 13.0056 17.4595 12.7947 17.6705C12.5837 17.8815 12.2976 18 11.9992 18Z" fill="#D71133"/>
</g>
</svg>
