<svg width="33" height="32" viewBox="0 0 33 32" fill="none" xmlns="http://www.w3.org/2000/svg">
<g id="CloudArrowUp">
<path id="Vector" d="M12.5 25.998H9.50003C8.50733 25.9971 7.52618 25.785 6.62172 25.3758C5.71725 24.9667 4.91016 24.3698 4.254 23.6249C3.59785 22.88 3.10764 22.004 2.81591 21.0551C2.52419 20.1063 2.43762 19.1062 2.56196 18.1213C2.6863 17.1364 3.01869 16.1892 3.53708 15.3426C4.05548 14.496 4.74801 13.7694 5.56871 13.2109C6.38942 12.6524 7.31952 12.2749 8.29729 12.1033C9.27507 11.9318 10.2781 11.9702 11.2399 12.216" stroke="#323232" stroke-linecap="round" stroke-linejoin="round"/>
<path id="Vector_2" d="M10.5 15.998C10.5002 14.4136 10.8768 12.8518 11.5989 11.4415C12.321 10.0312 13.368 8.81262 14.6534 7.88625C15.9388 6.95988 17.426 6.35221 18.9923 6.11333C20.5587 5.87445 22.1594 6.01118 23.6625 6.51227C25.1656 7.01335 26.5282 7.86444 27.6379 8.99541C28.7476 10.1264 29.5726 11.5048 30.0451 13.0172C30.5175 14.5296 30.6239 16.1326 30.3553 17.6941C30.0867 19.2557 29.4509 20.731 28.5003 21.9986" stroke="#323232" stroke-linecap="round" stroke-linejoin="round"/>
<path id="Vector_3" d="M15.2578 20.2408L19.5004 15.998L23.7431 20.2408" stroke="#323232" stroke-linecap="round" stroke-linejoin="round"/>
<path id="Vector_4" d="M19.5 25.998V15.998" stroke="#323232" stroke-linecap="round" stroke-linejoin="round"/>
</g>
</svg>
