<svg width="24" height="24" viewBox="0 0 24 24" fill="none" xmlns="http://www.w3.org/2000/svg">
<g id="Info">
<path id="Vector" opacity="0.1" d="M0.5 23.5V0.5H23.5V23.5H0.5Z" stroke="white"/>
<path id="Vector_2" d="M12 2.25C10.0716 2.25 8.18657 2.82183 6.58319 3.89317C4.97982 4.96451 3.73013 6.48726 2.99218 8.26884C2.25422 10.0504 2.06114 12.0108 2.43735 13.9021C2.81355 15.7934 3.74215 17.5307 5.10571 18.8943C6.46928 20.2579 8.20656 21.1865 10.0979 21.5627C11.9892 21.9389 13.9496 21.7458 15.7312 21.0078C17.5127 20.2699 19.0355 19.0202 20.1068 17.4168C21.1782 15.8134 21.75 13.9284 21.75 12C21.7471 9.41504 20.7189 6.93679 18.8911 5.10894C17.0632 3.28109 14.585 2.25293 12 2.25ZM11.8126 6.75003C12.0351 6.75003 12.2526 6.81601 12.4376 6.93963C12.6226 7.06325 12.7668 7.23895 12.8519 7.44452C12.9371 7.65008 12.9593 7.87628 12.9159 8.09451C12.8725 8.31274 12.7654 8.5132 12.608 8.67053C12.4507 8.82786 12.2503 8.93501 12.032 8.97842C11.8138 9.02183 11.5876 8.99955 11.382 8.9144C11.1765 8.82925 11.0008 8.68506 10.8772 8.50005C10.7535 8.31505 10.6876 8.09754 10.6876 7.87503C10.6876 7.57667 10.8061 7.29052 11.0171 7.07954C11.228 6.86856 11.5142 6.75003 11.8126 6.75003ZM12.75 17.25H12C11.8011 17.25 11.6103 17.171 11.4697 17.0303C11.329 16.8897 11.25 16.6989 11.25 16.5V12C11.0511 12 10.8603 11.921 10.7197 11.7803C10.579 11.6397 10.5 11.4489 10.5 11.25C10.5 11.0511 10.579 10.8603 10.7197 10.7197C10.8603 10.579 11.0511 10.5 11.25 10.5H12C12.1989 10.5 12.3897 10.579 12.5303 10.7197C12.671 10.8603 12.75 11.0511 12.75 11.25V15.75C12.9489 15.75 13.1397 15.829 13.2803 15.9697C13.421 16.1103 13.5 16.3011 13.5 16.5C13.5 16.6989 13.421 16.8897 13.2803 17.0303C13.1397 17.171 12.9489 17.25 12.75 17.25Z" fill="#D71133"/>
</g>
</svg>
